<svg width="195" height="191" viewBox="0 0 195 191" fill="none" xmlns="http://www.w3.org/2000/svg">
<path d="M166.661 80.8831H143.721C124.909 80.8831 109.59 65.5637 109.59 46.7519V23.8125C109.59 19.4469 106.018 15.875 101.653 15.875H67.9975C43.55 15.875 23.7856 31.75 23.7856 60.0869V130.413C23.7856 158.75 43.55 174.625 67.9975 174.625H130.386C154.834 174.625 174.598 158.75 174.598 130.413V88.8206C174.598 84.455 171.026 80.8831 166.661 80.8831Z" fill="#EBF6FF"/>
<path d="M129.354 17.5418C126.099 14.2874 120.464 16.5099 120.464 21.0343V48.7362C120.464 60.3249 130.306 69.9293 142.292 69.9293C149.833 70.0087 160.31 70.0087 169.279 70.0087C173.804 70.0087 176.185 64.6905 173.01 61.5155C161.58 50.0062 141.101 29.2893 129.354 17.5418Z" fill="#C7C7C7"/>
<path d="M111.098 109.141H63.4731C60.2188 109.141 57.52 106.442 57.52 103.188C57.52 99.9331 60.2188 97.2344 63.4731 97.2344H111.098C114.353 97.2344 117.051 99.9331 117.051 103.188C117.051 106.442 114.353 109.141 111.098 109.141Z" fill="#DDDDDD"/>
<path d="M95.2231 140.891H63.4731C60.2188 140.891 57.52 138.192 57.52 134.938C57.52 131.683 60.2188 128.984 63.4731 128.984H95.2231C98.4775 128.984 101.176 131.683 101.176 134.938C101.176 138.192 98.4775 140.891 95.2231 140.891Z" fill="#DDDDDD"/>
<path d="M25.1747 29.8927C28.6187 25.4056 35.3813 25.4056 38.8253 29.8927V29.8927C40.488 32.059 43.0802 33.3073 45.8105 33.2566V33.2566C51.466 33.1515 55.6824 38.4388 54.3215 43.9291V43.9291C53.6645 46.5796 54.3048 49.3847 56.0467 51.4877V51.4877C59.655 55.8438 58.1502 62.4369 53.0092 64.7961V64.7961C50.5273 65.935 48.7334 68.1844 48.1753 70.8576V70.8576C47.0193 76.3946 40.9263 79.3288 35.8765 76.7803V76.7803C33.4386 75.55 30.5614 75.55 28.1235 76.7803V76.7803C23.0737 79.3288 16.9807 76.3946 15.8247 70.8576V70.8576C15.2666 68.1844 13.4727 65.935 10.9908 64.7961V64.7961C5.84983 62.4369 4.34499 55.8438 7.95328 51.4877V51.4877C9.69524 49.3847 10.3355 46.5796 9.67847 43.9291V43.9291C8.31756 38.4388 12.534 33.1515 18.1895 33.2566V33.2566C20.9198 33.3073 23.512 32.059 25.1747 29.8927V29.8927Z" fill="#2678FD"/>
<path d="M38.52 44.9798C36.73 43.1798 34.98 43.1398 33.14 44.9798L32.01 46.0998C31.91 46.1998 31.88 46.3398 31.92 46.4698C32.62 48.9198 34.58 50.8798 37.03 51.5798C37.06 51.5898 37.11 51.5898 37.14 51.5898C37.24 51.5898 37.34 51.5498 37.41 51.4798L38.52 50.3598C39.43 49.4498 39.88 48.5798 39.88 47.6898C39.88 46.7898 39.43 45.8998 38.52 44.9798Z" fill="white"/>
<path d="M35.3601 52.4198C35.0901 52.2898 34.8301 52.1598 34.5901 52.0098C34.3901 51.8898 34.1901 51.7598 34.0001 51.6198C33.8401 51.5198 33.6601 51.3698 33.4801 51.2198C33.4601 51.2098 33.4001 51.1598 33.3201 51.0798C33.0101 50.8298 32.6801 50.4898 32.3701 50.1198C32.3501 50.0998 32.2901 50.0398 32.2401 49.9498C32.1401 49.8398 31.9901 49.6498 31.8601 49.4398C31.7501 49.2998 31.6201 49.0998 31.5001 48.8898C31.3501 48.6398 31.2201 48.3898 31.1001 48.1298C30.9701 47.8498 30.8701 47.5898 30.7801 47.3398L25.4001 52.7198C25.0501 53.0698 24.7101 53.7298 24.6401 54.2198L24.2101 57.1998C24.1201 57.8298 24.2901 58.4198 24.6801 58.8098C25.0101 59.1398 25.4601 59.3098 25.9601 59.3098C26.0701 59.3098 26.1801 59.2998 26.2901 59.2898L29.2601 58.8698C29.7501 58.7998 30.4101 58.4698 30.7601 58.1098L36.1401 52.7298C35.8901 52.6498 35.6401 52.5398 35.3601 52.4198Z" fill="white"/>
</svg>
